PathFileType	4	(X/Y/Z)	C:\Users\Graham\Documents\MATLAB\MOtoNMS_v2_2\MyData\ElaboratedData\S9\22-05-17\staticElaborations\Static1\Static1\\Static1.trc
DataRate	CameraRate	NumFrames	NumMarkers	Units	OrigDataRate	DataStartFrame
100	100	7	38	mm	100	2
Frame#	Time	V_Sacral			R_ASIS			L_ASIS			R_Knee_Lat			R_Knee_Med			R_Thigh_Upper			R_Thigh_Front			R_Thigh_Rear			L_Knee_Lat			L_Knee_Med			L_Thigh_Upper			L_Thigh_Front			L_Thigh_Rear			R_Ankle_Lat			R_Ankle_Med			R_Shank_Upper			R_Shank_Front			R_Shank_Rear			L_Ankle_Lat			L_Ankle_Med			L_Shank_Upper			L_Shank_Front			L_Shank_Rear			R_Heel			R_MTP1			R_MTP5			L_Heel			L_MTP1			L_MTP5			Clavicle			R_Acromium			L_Acromium			LAJC			RAJC			LHJC			RHJC			LKJC			RKJC		
		X1	Y1	Z1	X2	Y2	Z2	X3	Y3	Z3	X4	Y4	Z4	X5	Y5	Z5	X6	Y6	Z6	X7	Y7	Z7	X8	Y8	Z8	X9	Y9	Z9	X10	Y10	Z10	X11	Y11	Z11	X12	Y12	Z12	X13	Y13	Z13	X14	Y14	Z14	X15	Y15	Z15	X16	Y16	Z16	X17	Y17	Z17	X18	Y18	Z18	X19	Y19	Z19	X20	Y20	Z20	X21	Y21	Z21	X22	Y22	Z22	X23	Y23	Z23	X24	Y24	Z24	X25	Y25	Z25	X26	Y26	Z26	X27	Y27	Z27	X28	Y28	Z28	X29	Y29	Z29	X30	Y30	Z30	X31	Y31	Z31	X32	Y32	Z32	X33	Y33	Z33	X34	Y34	Z34	X35	Y35	Z35	X36	Y36	Z36	X37	Y37	Z37	X38	Y38	Z38	

138	1.370000	-164.974660	1026.651540	4.545957	16.905970	1001.382087	149.848267	44.965343	1008.326669	-94.160088	-93.565325	497.047522	166.516143	-102.198070	476.210811	52.965353	35.375950	721.185310	130.547483	2.968579	611.735751	88.750034	1.619590	606.881204	166.230531	-72.662353	497.855525	-150.691205	-85.172964	474.389786	-37.392345	54.833684	719.399871	-90.728121	24.443037	608.803199	-59.717412	26.564036	609.004875	-127.328169	-144.621459	96.085304	146.288785	-126.273931	100.893697	56.168914	-59.395297	340.232851	136.163563	-94.485444	229.562181	78.034810	-97.933649	223.640935	159.688626	-137.037676	89.250472	-152.371212	-126.275819	97.697827	-58.411021	-48.052420	337.308205	-122.968430	-73.565139	221.972631	-75.558746	-85.861150	222.803729	-156.013952	-204.146587	43.377259	113.081417	35.236873	59.391492	78.376597	21.962404	51.096832	160.993764	-201.962908	44.578090	-110.842820	39.982800	55.521631	-69.329095	36.802714	49.382721	-148.976953	31.522378	1407.605943	28.320945	-79.633047	1480.352801	221.700620	-67.358507	1510.195963	-178.688700	-131.656747	93.474149	-105.391116	-135.447695	98.489500	101.228850	-24.754805	929.589302	-69.705845	-44.941238	924.593241	105.838291	-78.917659	486.122655	-94.041775	-97.881697	486.629166	109.740748	
139	1.380000	-165.013959	1026.652454	4.500994	16.841379	1001.416417	149.852085	44.963175	1008.335675	-94.130877	-93.632539	497.052352	166.515601	-102.234356	476.211074	52.962245	35.312997	721.204572	130.579101	2.909757	611.741685	88.774886	1.555866	606.900926	166.276401	-72.631180	497.851700	-150.694480	-85.174809	474.387734	-37.394973	54.843519	719.405478	-90.684445	24.445981	608.809889	-59.685655	26.591420	609.009282	-127.291708	-144.623686	96.084074	146.284058	-126.276684	100.892793	56.167044	-59.431904	340.238649	136.169108	-94.497136	229.565059	78.036773	-97.963401	223.644980	159.692025	-137.036262	89.248414	-152.374352	-126.276181	97.699041	-58.413207	-48.039447	337.302730	-122.962768	-73.562904	221.971183	-75.560611	-85.845113	222.800918	-156.019124	-204.148178	43.374827	113.080987	35.234999	59.393934	78.378506	21.960661	51.098832	160.996677	-201.964567	44.576590	-110.844410	39.981556	55.522959	-69.328553	36.802704	49.384964	-148.977026	31.494157	1407.616246	28.253772	-79.590247	1480.450488	221.621670	-67.402734	1510.184439	-178.773084	-131.656221	93.473727	-105.393780	-135.450185	98.488434	101.225551	-24.757292	929.600127	-69.689612	-44.988761	924.622253	105.837364	-78.902995	486.119717	-94.044726	-97.933448	486.631713	109.738923	
140	1.390000	-165.055200	1026.654416	4.453740	16.767250	1001.448936	149.858008	44.961925	1008.345979	-94.098997	-93.702298	497.057706	166.515158	-102.270484	476.211370	52.959463	35.247007	721.225167	130.613730	2.849192	611.747471	88.802320	1.488238	606.922308	166.322935	-72.594915	497.847734	-150.696463	-85.173253	474.386395	-37.397615	54.856196	719.412655	-90.639391	24.453695	608.818946	-59.652155	26.623371	609.014961	-127.253038	-144.626236	96.083433	146.280179	-126.279201	100.891850	56.165147	-59.470992	340.244229	136.174991	-94.510476	229.567639	78.037978	-97.994458	223.649354	159.695368	-137.034450	89.247077	-152.377137	-126.276110	97.700434	-58.415245	-48.023953	337.296992	-122.956263	-73.559312	221.969250	-75.562266	-85.827758	222.796695	-156.019459	-204.149630	43.372820	113.080640	35.232867	59.396436	78.380176	21.959075	51.100934	160.999950	-201.965751	44.575523	-110.845812	39.980558	55.524106	-69.327877	36.802486	49.387421	-148.977059	31.472949	1407.627141	28.201203	-79.557008	1480.538242	221.552279	-67.437253	1510.178908	-178.846564	-131.655280	93.473755	-105.396191	-135.452719	98.487641	101.222663	-24.760055	929.612102	-69.674557	-45.044078	924.650180	105.834810	-78.884084	486.117065	-94.047039	-97.986391	486.634538	109.737311	
141	1.400000	-165.098442	1026.657822	4.405944	16.684006	1001.478417	149.865469	44.959982	1008.357657	-94.065820	-93.772835	497.063346	166.514683	-102.305593	476.211613	52.957320	35.178712	721.246370	130.650490	2.788152	611.752929	88.831778	1.421727	606.946306	166.371276	-72.555377	497.843743	-150.697337	-85.168673	474.385787	-37.400154	54.869854	719.421580	-90.594838	24.465312	608.830421	-59.618384	26.657764	609.022072	-127.213750	-144.629062	96.083377	146.277311	-126.281278	100.890795	56.163361	-59.511797	340.249530	136.181072	-94.525204	229.569800	78.038486	-98.026303	223.653839	159.698641	-137.032349	89.246530	-152.379516	-126.275752	97.701858	-58.417143	-48.006821	337.291249	-122.949219	-73.554611	221.966921	-75.563484	-85.810051	222.790725	-156.012875	-204.150711	43.371266	113.080385	35.230562	59.398965	78.381659	21.957672	51.102971	161.003362	-201.966338	44.574811	-110.846961	39.979849	55.525110	-69.327104	36.801983	49.389878	-148.977084	31.459031	1407.639117	28.160882	-79.530773	1480.615991	221.492226	-67.464406	1510.179427	-178.908752	-131.654051	93.474194	-105.398330	-135.455170	98.487086	101.220336	-24.764720	929.625291	-69.661785	-45.107348	924.676149	105.830066	-78.862025	486.114765	-94.048745	-98.039214	486.637480	109.736002	
142	1.410000	-165.143555	1026.662831	4.359207	16.594913	1001.504984	149.873706	44.956064	1008.370480	-94.032614	-93.842403	497.069000	166.513982	-102.339069	476.211687	52.956107	35.108997	721.267431	130.688250	2.727902	611.757975	88.862427	1.361563	606.973837	166.422621	-72.514840	497.839863	-150.697320	-85.161842	474.385882	-37.402482	54.882560	719.432150	-90.552556	24.479520	608.843979	-59.585784	26.692166	609.030567	-127.175458	-144.632149	96.083825	146.275490	-126.282787	100.889572	56.161804	-59.553442	340.254519	136.187171	-94.540940	229.571456	78.038427	-98.058348	223.658202	159.701817	-137.030111	89.246727	-152.381461	-126.275303	97.703175	-58.418870	-47.989185	337.285768	-122.941959	-73.549152	221.964369	-75.564091	-85.793031	222.782860	-155.997790	-204.151220	43.370123	113.080212	35.228174	59.401468	78.383028	21.956485	51.104805	161.006701	-201.966297	44.574335	-110.847845	39.979435	55.526025	-69.326324	36.801142	49.392128	-148.977114	31.452184	1407.652409	28.130517	-79.509492	1480.683914	221.441038	-67.486097	1510.185349	-178.959460	-131.652707	93.474951	-105.400166	-135.457468	98.486699	101.218647	-24.772304	929.639574	-69.651178	-45.176315	924.700295	105.823616	-78.838341	486.112872	-94.049901	-98.090736	486.640344	109.735045	
143	1.420000	-165.190260	1026.669380	4.314934	16.505114	1001.529705	149.881828	44.949197	1008.383995	-94.000527	-93.909371	497.074416	166.512855	-102.370559	476.211478	52.956050	35.038948	721.287646	130.725693	2.669674	611.762627	88.893220	1.312212	607.005410	166.477664	-72.475909	497.836257	-150.696678	-85.153909	474.386616	-37.404530	54.892420	719.444038	-90.514123	24.494655	608.859034	-59.555684	26.723993	609.040221	-127.139674	-144.635513	96.084639	146.274647	-126.283711	100.888155	56.160554	-59.594980	340.259176	136.193096	-94.557256	229.572551	78.037952	-98.089951	223.662248	159.704853	-137.027921	89.247507	-152.382975	-126.274977	97.704275	-58.420360	-47.972350	337.280811	-122.934816	-73.543378	221.961867	-75.563997	-85.777735	222.773220	-155.973522	-204.151036	43.369287	113.080086	35.225798	59.403878	78.384355	21.955561	51.106348	161.009804	-201.965693	44.573970	-110.848498	39.979286	55.526908	-69.325659	36.799954	49.394006	-148.977145	31.451790	1407.666996	28.108011	-79.491564	1480.742431	221.398096	-67.503765	1510.195542	-178.998754	-131.651449	93.475891	-105.401667	-135.459612	98.486397	101.217600	-24.783320	929.654686	-69.641765	-45.247095	924.723445	105.816644	-78.814909	486.111436	-94.050604	-98.139965	486.642947	109.734452	
144	1.430000	-165.238198	1026.677244	4.274314	16.420464	1001.554113	149.888900	44.938673	1008.397640	-93.970577	-93.972307	497.079402	166.511154	-102.399949	476.210905	52.957273	34.969837	721.306415	130.761435	2.614617	611.767008	88.923014	1.276415	607.040785	166.536088	-72.441324	497.833127	-150.695723	-85.146305	474.387895	-37.406274	54.897689	719.456771	-90.480831	24.508836	608.874889	-59.529223	26.750702	609.050693	-127.107692	-144.639196	96.085664	146.274654	-126.284132	100.886555	56.159652	-59.635442	340.263494	136.198662	-94.573726	229.573058	78.037188	-98.120433	223.665851	159.707685	-137.025982	89.248618	-152.384100	-126.274984	97.705096	-58.421533	-47.957677	337.276634	-122.928128	-73.537794	221.959765	-75.563194	-85.765130	222.762252	-155.940615	-204.150158	43.368630	113.079953	35.223526	59.406130	78.385694	21.954944	51.107570	161.012576	-201.964672	44.573607	-110.848995	39.979340	55.527806	-69.325229	36.798459	49.395418	-148.977172	31.456926	1407.682655	28.091560	-79.475727	1480.792194	221.362753	-67.518384	1510.208733	-179.026985	-131.650483	93.476857	-105.402816	-135.461664	98.486110	101.217153	-24.797922	929.670283	-69.632180	-45.315125	924.746761	105.810621	-78.793815	486.110511	-94.050998	-98.186128	486.645154	109.734214	
